<mxfile host="app.diagrams.net" modified="2021-05-30T18:31:29.553Z" agent="5.0 (Windows NT 10.0; Win64; x64) AppleWebKit/537.36 (KHTML, like Gecko) Chrome/90.0.4430.212 Safari/537.36" etag="aCMJr_DK0le7sJQugQbF" version="14.6.13" type="github">
  <diagram id="dC4lWhvkVcj6n14JuXEC" name="Page-1">
    <mxGraphModel dx="2966" dy="1566" grid="1" gridSize="10" guides="1" tooltips="1" connect="1" arrows="1" fold="1" page="1" pageScale="1" pageWidth="3400" pageHeight="3400" math="0" shadow="0">
      <root>
        <mxCell id="0" />
        <mxCell id="1" parent="0" />
        <mxCell id="1t7fYTdQ6imnSC8nWYV8-1" value="&lt;font style=&quot;font-size: 40px&quot;&gt;1&lt;/font&gt;" style="ellipse;whiteSpace=wrap;html=1;" vertex="1" parent="1">
          <mxGeometry x="1780" y="670" width="120" height="80" as="geometry" />
        </mxCell>
        <mxCell id="1t7fYTdQ6imnSC8nWYV8-2" value="&lt;font style=&quot;font-size: 40px&quot;&gt;2&lt;/font&gt;" style="ellipse;whiteSpace=wrap;html=1;" vertex="1" parent="1">
          <mxGeometry x="550" y="670" width="120" height="80" as="geometry" />
        </mxCell>
        <mxCell id="1t7fYTdQ6imnSC8nWYV8-3" value="&lt;font style=&quot;font-size: 40px&quot;&gt;Н&lt;/font&gt;" style="ellipse;whiteSpace=wrap;html=1;" vertex="1" parent="1">
          <mxGeometry x="1130" y="230" width="120" height="80" as="geometry" />
        </mxCell>
        <mxCell id="1t7fYTdQ6imnSC8nWYV8-4" value="" style="endArrow=classic;html=1;exitX=1;exitY=0.5;exitDx=0;exitDy=0;entryX=0.5;entryY=0;entryDx=0;entryDy=0;" edge="1" parent="1" source="1t7fYTdQ6imnSC8nWYV8-3" target="1t7fYTdQ6imnSC8nWYV8-1">
          <mxGeometry width="50" height="50" relative="1" as="geometry">
            <mxPoint x="1000" y="770" as="sourcePoint" />
            <mxPoint x="1050" y="720" as="targetPoint" />
          </mxGeometry>
        </mxCell>
        <mxCell id="1t7fYTdQ6imnSC8nWYV8-5" value="" style="endArrow=classic;html=1;exitX=0;exitY=0.5;exitDx=0;exitDy=0;entryX=0.5;entryY=0;entryDx=0;entryDy=0;" edge="1" parent="1" source="1t7fYTdQ6imnSC8nWYV8-3" target="1t7fYTdQ6imnSC8nWYV8-2">
          <mxGeometry width="50" height="50" relative="1" as="geometry">
            <mxPoint x="1000" y="770" as="sourcePoint" />
            <mxPoint x="1050" y="720" as="targetPoint" />
          </mxGeometry>
        </mxCell>
        <mxCell id="1t7fYTdQ6imnSC8nWYV8-6" value="&lt;font style=&quot;font-size: 30px&quot;&gt;ffff((:0{1,4}){0,1}:){0,1}&lt;/font&gt;" style="text;html=1;strokeColor=none;fillColor=none;align=center;verticalAlign=middle;whiteSpace=wrap;rounded=0;rotation=35;" vertex="1" parent="1">
          <mxGeometry x="1390" y="340" width="440" height="120" as="geometry" />
        </mxCell>
        <mxCell id="1t7fYTdQ6imnSC8nWYV8-7" value="&lt;font style=&quot;font-size: 30px&quot;&gt;([0-9a-fA-F]{1,4}:){1,4}:&lt;/font&gt;" style="text;html=1;strokeColor=none;fillColor=none;align=center;verticalAlign=middle;whiteSpace=wrap;rounded=0;rotation=-30;" vertex="1" parent="1">
          <mxGeometry x="640" y="340" width="370" height="80" as="geometry" />
        </mxCell>
        <mxCell id="1t7fYTdQ6imnSC8nWYV8-8" value="&lt;font style=&quot;font-size: 40px&quot;&gt;1.1&lt;/font&gt;" style="ellipse;whiteSpace=wrap;html=1;" vertex="1" parent="1">
          <mxGeometry x="2240" y="1020" width="120" height="80" as="geometry" />
        </mxCell>
        <mxCell id="1t7fYTdQ6imnSC8nWYV8-9" value="&lt;font style=&quot;font-size: 40px&quot;&gt;1&lt;/font&gt;" style="ellipse;whiteSpace=wrap;html=1;" vertex="1" parent="1">
          <mxGeometry x="1580" y="1000" width="120" height="80" as="geometry" />
        </mxCell>
        <mxCell id="1t7fYTdQ6imnSC8nWYV8-10" value="" style="endArrow=classic;html=1;exitX=1;exitY=1;exitDx=0;exitDy=0;" edge="1" parent="1" source="1t7fYTdQ6imnSC8nWYV8-1">
          <mxGeometry width="50" height="50" relative="1" as="geometry">
            <mxPoint x="1890" y="1180" as="sourcePoint" />
            <mxPoint x="2260" y="1030" as="targetPoint" />
          </mxGeometry>
        </mxCell>
        <mxCell id="1t7fYTdQ6imnSC8nWYV8-11" value="&lt;font style=&quot;font-size: 40px&quot;&gt;1.1&lt;/font&gt;" style="ellipse;whiteSpace=wrap;html=1;" vertex="1" parent="1">
          <mxGeometry x="2550" y="1390" width="120" height="80" as="geometry" />
        </mxCell>
        <mxCell id="1t7fYTdQ6imnSC8nWYV8-12" value="&lt;font style=&quot;font-size: 40px&quot;&gt;1.1&lt;/font&gt;" style="ellipse;whiteSpace=wrap;html=1;" vertex="1" parent="1">
          <mxGeometry x="2290" y="1420" width="120" height="80" as="geometry" />
        </mxCell>
        <mxCell id="1t7fYTdQ6imnSC8nWYV8-13" value="&lt;font style=&quot;font-size: 40px&quot;&gt;1.1&lt;/font&gt;" style="ellipse;whiteSpace=wrap;html=1;" vertex="1" parent="1">
          <mxGeometry x="1960" y="1350" width="130" height="90" as="geometry" />
        </mxCell>
        <mxCell id="1t7fYTdQ6imnSC8nWYV8-14" value="" style="endArrow=classic;html=1;exitX=1;exitY=1;exitDx=0;exitDy=0;entryX=0;entryY=0;entryDx=0;entryDy=0;" edge="1" parent="1" source="1t7fYTdQ6imnSC8nWYV8-8" target="1t7fYTdQ6imnSC8nWYV8-11">
          <mxGeometry width="50" height="50" relative="1" as="geometry">
            <mxPoint x="2380" y="1420" as="sourcePoint" />
            <mxPoint x="2430" y="1370" as="targetPoint" />
          </mxGeometry>
        </mxCell>
        <mxCell id="1t7fYTdQ6imnSC8nWYV8-15" value="" style="endArrow=classic;html=1;exitX=0.5;exitY=1;exitDx=0;exitDy=0;entryX=0.5;entryY=0;entryDx=0;entryDy=0;" edge="1" parent="1" source="1t7fYTdQ6imnSC8nWYV8-8" target="1t7fYTdQ6imnSC8nWYV8-12">
          <mxGeometry width="50" height="50" relative="1" as="geometry">
            <mxPoint x="2380" y="1420" as="sourcePoint" />
            <mxPoint x="2430" y="1370" as="targetPoint" />
          </mxGeometry>
        </mxCell>
        <mxCell id="1t7fYTdQ6imnSC8nWYV8-16" value="" style="endArrow=classic;html=1;exitX=0;exitY=1;exitDx=0;exitDy=0;entryX=0.5;entryY=0;entryDx=0;entryDy=0;" edge="1" parent="1" source="1t7fYTdQ6imnSC8nWYV8-8" target="1t7fYTdQ6imnSC8nWYV8-13">
          <mxGeometry width="50" height="50" relative="1" as="geometry">
            <mxPoint x="2380" y="1420" as="sourcePoint" />
            <mxPoint x="2430" y="1370" as="targetPoint" />
          </mxGeometry>
        </mxCell>
        <mxCell id="1t7fYTdQ6imnSC8nWYV8-17" value="&lt;font style=&quot;font-size: 40px&quot;&gt;1&lt;/font&gt;" style="ellipse;whiteSpace=wrap;html=1;" vertex="1" parent="1">
          <mxGeometry x="730" y="2040" width="120" height="80" as="geometry" />
        </mxCell>
        <mxCell id="1t7fYTdQ6imnSC8nWYV8-18" value="&lt;font style=&quot;font-size: 40px&quot;&gt;2&lt;/font&gt;" style="ellipse;whiteSpace=wrap;html=1;" vertex="1" parent="1">
          <mxGeometry x="1360" y="2040" width="120" height="80" as="geometry" />
        </mxCell>
        <mxCell id="1t7fYTdQ6imnSC8nWYV8-20" value="" style="endArrow=classic;html=1;exitX=0;exitY=0;exitDx=0;exitDy=0;entryX=1;entryY=0;entryDx=0;entryDy=0;" edge="1" parent="1" source="1t7fYTdQ6imnSC8nWYV8-17" target="1t7fYTdQ6imnSC8nWYV8-17">
          <mxGeometry width="50" height="50" relative="1" as="geometry">
            <mxPoint x="1080" y="2330" as="sourcePoint" />
            <mxPoint x="1130" y="2280" as="targetPoint" />
            <Array as="points">
              <mxPoint x="710" y="1960" />
              <mxPoint x="780" y="1910" />
              <mxPoint x="850" y="1960" />
            </Array>
          </mxGeometry>
        </mxCell>
      </root>
    </mxGraphModel>
  </diagram>
</mxfile>
